#!OML:ASF H:\Terrain\Patient Classification 1\Walking\steve\steve.ASF
:FULLY-SPECIFIED
:DEGREES
95
root 6.94182 15.3288 -15.631 7.84379 -12.4049 -7.76344
lowerback -2.08512 8.09472 8.83196
upperback -2.23109 10.6677 1.31557
thorax 0.166271 5.26057 -3.11757
lowerneck -10.1848 -1.76672 -2.45597
upperneck 13.9412 -2.27766 1.86924
head 5.94482 -1.0902 0.809273
rclavicle -1.48896e-013 -7.85199e-014
rhumerus 11.6013 8.87493 -75.85
rradius 38.7429
rwrist -16.7357
rhand -18.015 -37.3095
rfingers 7.12502
rthumb 8.2559 -67.1282
lclavicle -1.48896e-013 -7.85199e-014
lhumerus -78.6497 11.8029 36.8115
lradius 10.2856
lwrist -26.838
lhand -17.0813 -12.2815
lfingers 7.12502
lthumb 9.15685 17.4997
rfemur 13.0331 -0.917454 26.9401
rtibia 14.5955
rfoot -2.91548 27.6923
rtoes 11.6106
lfemur -42.6314 1.57609 -6.11517
ltibia 14.8657
lfoot -20.2327 13.5479
ltoes -16.1501
96
root 6.94785 15.2995 -15.3786 8.00827 -12.7869 -8.08481
lowerback -1.97862 8.15238 8.62566
upperback -1.8877 10.7393 1.34977
thorax 0.431652 5.31743 -2.95576
lowerneck -13.4893 -1.87291 -1.28936
upperneck 15.6851 -2.35791 0.432425
head 7.04287 -1.16748 0.117478
rclavicle 6.48846e-015 1.33186e-014
rhumerus 13.2371 9.53013 -74.9428
rradius 39.0534
rwrist -17.6359
rhand -21.0019 -39.7447
rfingers 7.12502
rthumb 5.3725 -69.6565
lclavicle 6.48846e-015 1.33186e-014
lhumerus -79.3669 12.837 33.2673
lradius 9.89789
lwrist -28.7219
lhand -17.2444 -11.5588
lfingers 7.12502
lthumb 8.99954 18.2292
rfemur 13.835 -0.0682315 27.1333
rtibia 14.4826
rfoot -2.34185 27.1615
rtoes 10.3115
lfemur -42.4244 1.25637 -5.08142
ltibia 13.783
lfoot -20.6616 13.5383
ltoes -12.0763
97
root 6.95459 15.243 -15.1124 8.2217 -13.0603 -8.38647
lowerback -2.16521 8.27895 8.76605
upperback -2.09413 10.8968 1.30767
thorax 0.37023 5.38705 -3.04797
lowerneck -12.1605 -1.88764 -1.98739
upperneck 14.7342 -2.41763 1.38882
head 6.52802 -1.15981 0.549611
rclavicle 5.39079e-014 -1.39149e-014
rhumerus 13.6428 9.76438 -74.6239
rradius 39.2602
rwrist -18.3348
rhand -22.3871 -39.9737
rfingers 7.12502
rthumb 4.03492 -69.9153
lclavicle 5.39079e-014 -1.39149e-014
lhumerus -80.6632 12.5836 29.603
lradius 9.70034
lwrist -30.6
lhand -17.2678 -11.391
lfingers 7.12502
lthumb 8.97697 18.3981
rfemur 14.6604 0.706761 27.2779
rtibia 14.4361
rfoot -1.85758 26.5715
rtoes 9.87459
lfemur -42.4848 1.5791 -4.68169
ltibia 13.2278
lfoot -19.0387 12.6091
ltoes -10.4985
98
root 6.9628 15.2025 -14.8376 8.28854 -13.3139 -8.34506
lowerback -2.36587 8.49428 8.97797
upperback -2.76357 11.1968 0.993195
thorax -0.0828199 5.49859 -3.48055
lowerneck -9.42814 -1.98479 -2.226
upperneck 14.0034 -2.62077 1.82567
head 5.83858 -1.2524 0.736586
rclavicle -4.70023e-014 -1.66979e-014
rhumerus 12.9317 10.7114 -74.2222
rradius 39.5316
rwrist -20.2485
rhand -24.1405 -41.0889
rfingers 7.12502
rthumb 2.34163 -71.0558
lclavicle -4.70023e-014 -1.66979e-014
lhumerus -81.9375 11.0758 25.8229
lradius 9.61602
lwrist -32.3867
lhand -17.1237 -11.2938
lfingers 7.12502
lthumb 9.11596 18.4891
rfemur 15.5098 1.39283 26.987
rtibia 14.6504
rfoot -1.95979 26.0518
rtoes 8.09205
lfemur -42.4049 2.0989 -5.00612
ltibia 12.8543
lfoot -16.8048 11.7787
ltoes -12.5421
99
root 6.97022 15.1899 -14.5618 8.25947 -13.5504 -8.06625
lowerback -2.29733 8.87036 8.95599
upperback -3.25725 11.732 0.398866
thorax -0.451171 5.73683 -4.08123
lowerneck -7.68974 -2.31051 -2.16324
upperneck 13.3428 -3.17213 2.37078
head 5.35412 -1.49282 0.87591
rclavicle -6.62924e-014 -5.1684e-015
rhumerus 12.3816 10.3276 -74.0221
rradius 39.5928
rwrist -20.7364
rhand -23.2065 -40.5089
rfingers 7.12502
rthumb 3.24366 -70.464
lclavicle -6.62924e-014 -5.1684e-015
lhumerus -82.091 9.7244 22.2508
lradius 9.62891
lwrist -34.1031
lhand -16.6138 -11.5942
lfingers 7.12502
lthumb 9.60794 18.1667
rfemur 15.8406 2.04192 26.505
rtibia 15.8104
rfoot -1.90806 25.6509
rtoes 7.68015
lfemur -41.4763 2.84806 -5.88335
ltibia 11.3839
lfoot -14.1945 11.8038
ltoes -17.766
100
root 6.97497 15.1157 -14.2851 8.40759 -13.745 -8.09661
lowerback -2.01465 9.59348 9.13498
upperback -3.80513 12.749 -0.413148
thorax -0.826783 6.20913 -5.00375
lowerneck -6.79503 -3.0152 -1.76132
upperneck 12.8322 -4.29951 3.26136
head 5.08151 -1.9773 1.02404
rclavicle -4.70312e-014 2.62396e-014
rhumerus 11.0477 7.17536 -74.6101
rradius 40.0108
rwrist -19.1818
rhand -20.7787 -38.4767
rfingers 7.12502
rthumb 5.58803 -68.383
lclavicle -4.70312e-014 2.62396e-014
lhumerus -80.825 8.37099 19.0479
lradius 9.6702
lwrist -35.7976
lhand -16.4163 -12.144
lfingers 7.12502
lthumb 9.79852 17.608
rfemur 16.5158 3.02987 26.4912
rtibia 16.2521
rfoot 0.381417 24.8099
rtoes 12.6069
lfemur -42.018 3.74635 -6.49278
ltibia 12.3768
lfoot -12.873 10.7399
ltoes -18.5276
101
root 6.98013 14.9683 -13.9991 8.67513 -13.8793 -8.2804
lowerback -2.45085 8.95573 7.97614
upperback -3.07454 11.8359 0.515733
thorax -0.37171 5.81306 -3.41613
lowerneck -10.6023 -2.51841 -2.93528
upperneck 14.225 -3.38442 2.94344
head 6.15825 -1.56595 1.13027
rclavicle 9.8987e-014 4.96962e-015
rhumerus 13.092 8.8356 -73.9664
rradius 40.4055
rwrist -19.3175
rhand -20.5425 -39.0184
rfingers 7.12502
rthumb 5.81609 -68.9185
lclavicle 9.8987e-014 4.96962e-015
lhumerus -83.5585 10.6957 15.4452
lradius 9.47056
lwrist -37.5659
lhand -17.5371 -11.8292
lfingers 7.12502
lthumb 8.71706 17.9708
rfemur 17.3613 3.97354 26.6425
rtibia 16.3539
rfoot 3.14983 23.6087
rtoes 18.3212
lfemur -43.6665 4.40193 -6.80953
ltibia 14.9031
lfoot -11.9014 9.09398
ltoes -19.0464
102
root 6.98191 15.0208 -13.7066 9.00204 -13.9866 -8.34784
lowerback -2.89977 8.96227 7.6726
upperback -2.98597 11.8015 0.317551
thorax -0.0517496 5.81341 -3.37626
lowerneck -12.0214 -2.42713 -2.48211
upperneck 14.7286 -3.30591 2.84169
head 6.55155 -1.49582 1.0144
rclavicle 4.51893e-014 -3.18055e-015
rhumerus 13.5977 8.54178 -74.0772
rradius 40.6383
rwrist -19.3637
rhand -21.0297 -40.4474
rfingers 7.12502
rthumb 5.34572 -70.3599
lclavicle 4.51893e-014 -3.18055e-015
lhumerus -83.975 11.4103 11.6566
lradius 9.25464
lwrist -39.2546
lhand -18.5395 -11.3559
lfingers 7.12502
lthumb 7.74964 18.4821
rfemur 17.7032 4.5471 26.6819
rtibia 16.2323
rfoot 4.04564 22.4198
rtoes 16.0127
lfemur -44.5042 4.50469 -6.71327
ltibia 18.0175
lfoot -11.6823 8.23516
ltoes -21.4087
103
root 6.98818 15.0389 -13.41 9.35245 -13.999 -8.28295
lowerback -3.34126 8.85464 7.15951
upperback -2.62417 11.615 0.117742
thorax 0.492391 5.75212 -3.21834
lowerneck -14.6837 -2.37036 -2.26649
upperneck 15.4941 -3.26291 2.95032
head 7.25789 -1.42327 0.990741
rclavicle 2.79914e-014 -7.15625e-015
rhumerus 14.5807 8.60503 -73.9327
rradius 40.8605
rwrist -19.9272
rhand -21.5147 -40.3509
rfingers 7.12502
rthumb 4.8774 -70.2747
lclavicle 2.79914e-014 -7.15625e-015
lhumerus -84.6457 12.8441 7.8183
lradius 9.22576
lwrist -41.0802
lhand -19.1709 -10.7393
lfingers 7.12502
lthumb 7.14015 19.1203
rfemur 18.0943 5.26794 26.6393
rtibia 16.1621
rfoot 4.63633 21.2968
rtoes 12.6605
lfemur -45.7492 4.96365 -7.27968
ltibia 21.1869
lfoot -11.0171 7.28595
ltoes -10.5703
104
root 6.99763 15.0312 -13.1101 9.57789 -13.8194 -8.06597
lowerback -3.74929 9.70065 7.81427
upperback -4.2231 12.7511 -1.06915
thorax -0.429633 6.23853 -4.72339
lowerneck -8.65788 -3.04959 -1.1452
upperneck 13.5185 -4.45685 3.36524
head 5.60569 -1.98849 0.912155
rclavicle 1.06387e-013 -6.36111e-015
rhumerus 10.1723 6.61584 -74.5992
rradius 41.9405
rwrist -20.7014
rhand -21.7031 -39.8473
rfingers 7.12502
rthumb 4.69545 -69.7753
lclavicle 1.06387e-013 -6.36111e-015
lhumerus -82.5876 9.69591 4.56751
lradius 9.49206
lwrist -42.9921
lhand -19.0694 -11.0299
lfingers 7.12502
lthumb 7.23816 18.8263
rfemur 18.9495 5.8701 26.4428
rtibia 15.6186
rfoot 6.414 19.7824
rtoes 10.9771
lfemur -47.4242 5.33043 -8.17317
ltibia 24.9268
lfoot -9.24698 7.96509
ltoes -6.35846
105
root 7.00485 15.0266 -12.8093 9.65932 -13.7113 -7.59344
lowerback -3.90378 9.18951 6.64131
upperback -3.83438 12.074 -0.804588
thorax -0.313356 5.93414 -3.86395
lowerneck -10.6616 -2.74264 -2.09777
upperneck 13.7898 -3.9255 3.61722
head 6.04503 -1.73451 1.16059
rclavicle 1.14307e-013 1.82882e-014
rhumerus 11.383 8.6982 -73.6282
rradius 42.0638
rwrist -21.9662
rhand -20.7614 -39.2221
rfingers 7.12502
rthumb 5.60469 -69.128
lclavicle 1.14307e-013 1.82882e-014
lhumerus -84.6264 11.0502 0.821253
lradius 9.61838
lwrist -45.0515
lhand -19.2248 -11.1242
lfingers 7.12502
lthumb 7.08815 18.7371
rfemur 19.4125 6.44115 25.9922
rtibia 15.9161
rfoot 8.30089 18.2713
rtoes 8.82621
lfemur -48.5925 5.43504 -9.05055
ltibia 27.9589
lfoot -7.22317 8.21586
ltoes -5.90449
106
root 7.01089 15.012 -12.5117 9.85234 -13.6239 -6.97494
lowerback -4.09884 9.02664 5.65934
upperback -3.97357 11.8737 -1.05058
thorax -0.509705 5.84069 -3.60945
lowerneck -10.69 -2.63365 -2.76144
upperneck 13.2109 -3.79314 4.58403
head 5.89513 -1.63651 1.58679
rclavicle -7.83553e-014 -2.70347e-014
rhumerus 11.9297 11.4204 -72.0063
rradius 41.6928
rwrist -24.4389
rhand -20.7891 -38.4566
rfingers 7.12502
rthumb 5.57795 -68.3632
lclavicle -7.83553e-014 -2.70347e-014
lhumerus -85.4465 11.6608 -2.85927
lradius 9.74366
lwrist -47.0613
lhand -19.3921 -11.0431
lfingers 7.12502
lthumb 6.92667 18.8236
rfemur 19.5264 7.11825 25.4174
rtibia 16.6007
rfoot 10.7319 16.1943
rtoes 8.93055
lfemur -49.7605 5.49587 -10.0143
ltibia 30.8526
lfoot -6.24793 7.33956
ltoes 1.63772
